<?xml version="1.0" standalone="no"?>
<!DOCTYPE svg PUBLIC "-//W3C//DTD SVG 20010904//EN"
 "http://www.w3.org/TR/2001/REC-SVG-20010904/DTD/svg10.dtd">
<svg version="1.0" xmlns="http://www.w3.org/2000/svg"
 width="700.000000pt" height="700.000000pt" viewBox="0 0 700.000000 700.000000"
 preserveAspectRatio="xMidYMid meet">
<metadata>
Created by potrace 1.11, written by Peter Selinger 2001-2013
</metadata>
<g transform="translate(0.000000,700.000000) scale(0.100000,-0.100000)"
fill="#000000" stroke="none">
<path d="M3487 6065 c-81 -30 -152 -57 -157 -60 -20 -12 152 -200 261 -285 24
-19 49 -38 54 -43 89 -72 299 -200 463 -280 165 -82 235 -107 532 -197 14 -4
25 -14 24 -22 -8 -104 -18 -209 -29 -308 -4 -36 -9 -76 -10 -90 -2 -14 -6 -47
-9 -75 -3 -27 -8 -72 -11 -100 -2 -27 -7 -74 -11 -104 -4 -30 -8 -66 -9 -80
-2 -14 -6 -55 -10 -91 -3 -36 -8 -78 -10 -95 -2 -16 -7 -61 -10 -100 -12 -151
-13 -155 -45 -155 -24 0 -108 -52 -130 -80 -19 -23 -176 -127 -257 -168 -344
-176 -680 -256 -1078 -255 -100 0 -269 9 -335 19 -151 22 -246 42 -380 81
-312 91 -462 112 -549 77 -78 -31 -92 -106 -41 -211 33 -66 64 -101 308 -336
119 -116 152 -172 147 -248 -12 -159 -181 -425 -509 -799 -104 -118 -417 -437
-517 -525 -151 -135 -243 -212 -339 -285 -47 -35 -105 -83 -129 -106 l-43 -41
48 -50 c27 -28 75 -78 107 -112 33 -34 63 -61 68 -61 23 0 212 137 309 224 98
88 138 122 225 191 122 98 107 91 265 111 82 10 121 17 234 45 142 35 250 80
349 146 86 57 205 169 284 267 32 39 60 73 63 76 3 3 17 21 30 40 13 19 27 37
30 40 15 12 191 253 221 304 37 61 26 57 124 41 157 -27 596 -27 731 -1 12 2
45 7 75 11 167 20 483 103 619 162 208 90 336 170 440 273 94 94 142 172 180
292 l18 57 -54 31 c-60 34 -152 61 -185 55 -12 -3 -46 -30 -76 -62 -137 -145
-166 -174 -206 -206 -137 -112 -480 -230 -817 -281 -129 -20 -374 -25 -555
-12 -339 25 -458 7 -543 -85 -10 -10 -48 -78 -85 -151 -47 -95 -91 -165 -153
-243 -100 -125 -257 -286 -327 -334 -52 -35 -154 -84 -168 -79 -5 2 7 19 26
39 155 164 433 574 525 774 106 229 90 396 -58 605 -9 13 -12 21 -7 18 6 -3
39 -9 75 -12 36 -4 76 -8 90 -11 14 -2 48 -6 75 -9 121 -13 162 -18 184 -22
112 -17 449 -23 586 -11 363 34 622 125 1000 351 88 53 170 96 182 96 12 0 61
-20 110 -44 142 -70 437 -158 648 -191 82 -13 173 -26 245 -35 89 -11 145 -19
170 -25 8 -2 18 -4 23 -4 6 -1 -18 -47 -33 -61 -3 -3 -32 -39 -65 -80 -70 -88
-86 -106 -225 -259 -58 -64 -134 -150 -170 -191 -35 -41 -97 -110 -138 -152
l-75 -77 65 -68 c35 -37 89 -94 118 -125 l54 -58 24 23 c14 12 51 56 84 97 33
41 103 122 157 180 54 58 110 119 125 135 15 17 44 48 64 70 21 22 64 72 97
110 33 39 62 72 65 75 23 21 148 191 187 255 93 150 129 255 120 343 -3 30 -7
55 -9 57 -2 1 -27 6 -57 9 -30 4 -64 9 -75 11 -12 3 -41 7 -66 10 -25 2 -119
15 -210 29 -91 14 -185 28 -210 31 -54 8 -57 10 -64 55 -3 19 -26 116 -50 214
-65 259 -76 372 -42 460 21 56 48 70 213 112 382 97 588 210 655 361 45 101 9
244 -76 302 -69 48 -234 105 -361 125 -16 2 -30 5 -30 6 0 3 -37 8 -205 30
-213 27 -272 36 -460 69 -201 34 -533 122 -706 186 -178 66 -534 250 -600 310
-7 5 -35 28 -63 50 -29 22 -77 68 -108 103 -31 34 -61 62 -67 62 -6 -1 -78
-25 -159 -55z m1663 -980 c58 -9 119 -18 135 -21 17 -2 53 -9 80 -14 28 -5 70
-12 95 -15 25 -3 77 -10 115 -15 114 -17 136 -19 220 -25 44 -4 98 -8 120 -10
22 -2 51 -3 64 -4 23 -1 24 -2 6 -21 -24 -26 -167 -94 -195 -93 -3 0 -16 -4
-30 -9 -24 -9 -85 -22 -159 -34 -18 -3 -43 -8 -55 -10 -11 -2 -37 -7 -56 -10
-196 -33 -312 -101 -363 -212 -17 -39 -21 -67 -21 -162 -1 -63 2 -131 6 -150
6 -33 32 -201 43 -280 3 -19 7 -46 10 -60 2 -14 7 -47 10 -75 3 -27 8 -65 11
-82 4 -23 2 -33 -6 -33 -37 0 -322 98 -316 108 2 4 7 79 11 167 11 241 23 435
30 478 2 12 6 51 9 87 4 36 8 75 10 85 2 11 7 45 11 75 6 47 49 274 60 320 2
8 4 20 4 26 1 6 11 10 24 8 12 -2 69 -10 127 -19z"/>
</g>
</svg>
